<?xml version="1.0" encoding="UTF-8"?>
<svg id="Livello_1" data-name="Livello 1" xmlns="http://www.w3.org/2000/svg" viewBox="0 0 1024 1024">
  <defs>
    <style>
      .cls-1 {
        fill: #fff;
      }
    </style>
  </defs>
  <path class="cls-1" d="M522.4,752.845c-133.015,0-240.845-107.83-240.845-240.845s107.83-240.845,240.845-240.845c89.186,0,167.045,48.479,208.675,120.52h127.389c-49.375-137.888-181.196-236.54-336.064-236.54-197.091,0-356.865,159.774-356.865,356.865s159.774,356.865,356.865,356.865c153.292,0,284.004-96.655,334.531-232.344h-128.337c-42.195,69.721-118.75,116.325-206.194,116.325Z"/>
  <path class="cls-1" d="M734.947,514.098l-50.375-89.621v.005c-31.151-57.601-92.09-96.73-162.171-96.73-101.757,0-184.248,82.491-184.248,184.248s82.49,184.248,184.248,184.248c67.965,0,127.326-36.805,159.263-91.566v.021s53.284-90.605,53.284-90.605Z"/>
</svg>